<svg width="61" height="61" viewBox="0 0 61 61" fill="none" xmlns="http://www.w3.org/2000/svg">
<path d="M47.8164 25.4167C48.6017 25.4167 49.3439 25.0532 49.8243 24.433C50.3047 23.8129 50.4724 23.0046 50.2793 22.2447C49.4888 19.1515 47.8774 16.3251 45.6204 14.0681L36.7627 5.21042C33.4026 1.85033 28.9343 0 24.1814 0H12.7058C5.70096 0 0 5.70096 0 12.7083V48.2917C0 55.299 5.70096 61 12.7083 61H20.3333C21.7363 61 22.875 59.8613 22.875 58.4583C22.875 57.0553 21.7363 55.9167 20.3333 55.9167H12.7083C8.50442 55.9167 5.08333 52.4956 5.08333 48.2917V12.7083C5.08333 8.50442 8.50442 5.08333 12.7083 5.08333H24.184C24.5983 5.08333 25.01 5.10367 25.4167 5.14179V17.7917C25.4167 21.9956 28.8378 25.4167 33.0417 25.4167H47.8164ZM30.5 17.7917V6.75829C31.4633 7.31238 32.3605 7.99863 33.1688 8.80688L42.0265 17.6646C42.8245 18.4627 43.5083 19.3624 44.0674 20.3333H33.0417C31.6412 20.3333 30.5 19.1921 30.5 17.7917ZM58.7684 30.1925C55.8862 27.3102 50.8638 27.3102 47.9841 30.1925L30.9372 47.2394C29.0182 49.1584 27.9583 51.7128 27.9583 54.4298V58.4609C27.9583 59.8639 29.097 61.0025 30.5 61.0025H34.5311C37.2481 61.0025 39.8 59.9427 41.7189 58.0237L58.7659 40.9767C60.207 39.5356 61 37.6217 61 35.5833C61 33.5449 60.207 31.631 58.7684 30.1925ZM55.172 37.3803L38.1225 54.4272C37.1642 55.388 35.8883 55.9167 34.5285 55.9167H33.0391V54.4272C33.0391 53.07 33.5678 51.7941 34.5285 50.8333L51.578 33.7864C52.5363 32.8256 54.2112 32.8256 55.172 33.7864C55.6523 34.2642 55.9167 34.9022 55.9167 35.5833C55.9167 36.2645 55.6523 36.8999 55.172 37.3803Z" fill="black"/>
</svg>
