<svg width="61" height="61" viewBox="0 0 61 61" fill="none" xmlns="http://www.w3.org/2000/svg">
<path d="M55.9167 3.0702e-05H50.3962C49.3945 -0.00282227 48.4022 0.193185 47.4768 0.57669C46.5514 0.960196 45.7113 1.52357 45.0053 2.23416L23.7544 23.4825C19.6859 22.4327 15.3851 22.7498 11.5144 24.3847C7.6438 26.0197 4.41806 28.8819 2.3341 32.5305C0.250143 36.179 -0.576439 40.4116 -0.0183223 44.5761C0.539795 48.7406 2.45165 52.6062 5.42275 55.5773C8.39386 58.5484 12.2594 60.4602 16.4239 61.0184C20.5885 61.5765 24.821 60.7499 28.4696 58.6659C32.1181 56.582 34.9803 53.3562 36.6153 49.4856C38.2503 45.615 38.5673 41.3141 37.5175 37.2456L40.6667 34.0965V27.9584H48.2917V20.3334H54.4273L58.7659 15.9947C59.4762 15.288 60.0394 14.4474 60.4229 13.5217C60.8063 12.5959 61.0025 11.6033 61 10.6013V5.08336C61 3.73518 60.4644 2.44221 59.5111 1.4889C58.5578 0.535595 57.2649 3.0702e-05 55.9167 3.0702e-05ZM55.9167 10.6013C55.9169 10.9355 55.8513 11.2664 55.7235 11.5752C55.5957 11.884 55.4083 12.1646 55.172 12.4008L52.3228 15.25H43.2083V22.875H35.5833V31.9869L31.6565 35.9138C32.5507 37.7971 33.0235 39.8528 33.0417 41.9375C33.0417 44.7023 32.2218 47.4051 30.6858 49.7039C29.1497 52.0028 26.9665 53.7945 24.4121 54.8526C21.8577 55.9106 19.047 56.1875 16.3353 55.6481C13.6236 55.1087 11.1328 53.7773 9.17774 51.8223C7.22271 49.8673 5.89133 47.3764 5.35194 44.6647C4.81255 41.953 5.08938 39.1423 6.14743 36.5879C7.20548 34.0336 8.99723 31.8503 11.2961 30.3143C13.595 28.7782 16.2977 27.9584 19.0625 27.9584C21.1615 27.8212 23.2548 28.3018 25.0837 29.341L48.5992 5.82807C49.0772 5.35349 49.7226 5.08599 50.3962 5.08336H55.9167V10.6013ZM12.7083 45.75C12.7083 46.2527 12.8574 46.7441 13.1367 47.1621C13.416 47.5801 13.8129 47.9059 14.2773 48.0982C14.7418 48.2906 15.2528 48.3409 15.7459 48.2429C16.2389 48.1448 16.6918 47.9027 17.0472 47.5473C17.4027 47.1918 17.6448 46.7389 17.7428 46.2459C17.8409 45.7529 17.7906 45.2418 17.5982 44.7774C17.4058 44.313 17.08 43.916 16.6621 43.6367C16.2441 43.3574 15.7527 43.2084 15.25 43.2084C14.5759 43.2084 13.9294 43.4761 13.4528 43.9528C12.9761 44.4295 12.7083 45.0759 12.7083 45.75Z" fill="black"/>
</svg>
