<svg width="61" height="61" viewBox="0 0 61 61" fill="none" xmlns="http://www.w3.org/2000/svg">
<g clip-path="url(#clip0_19_106)">
<path d="M24.1458 6.35417C24.1458 2.84413 26.99 0 30.5 0C34.01 0 36.8542 2.84413 36.8542 6.35417C36.8542 9.86421 34.01 12.7083 30.5 12.7083C26.99 12.7083 24.1458 9.86421 24.1458 6.35417ZM61 52.1042V61H0V49.5625C0 46.0575 2.85175 43.2083 6.35417 43.2083H16.5208C16.9961 43.2083 17.4562 43.2693 17.9035 43.371C18.3585 40.809 20.3359 38.7706 22.875 38.2546V20.1808L10.8199 6.78371L14.5968 3.38296L25.2769 15.25H35.7206L46.4007 3.38296L50.1776 6.78371L38.1225 20.1783V38.2521C41.02 38.8418 43.2058 41.4088 43.2058 44.4766V45.8771C43.6175 45.7932 44.042 45.7475 44.4766 45.7475H54.6433C58.1483 45.7475 60.9975 48.5967 60.9975 52.1016L61 52.1042ZM33.0417 20.3333H27.9583V27.9583H33.0417V20.3333ZM27.9583 38.125H33.0417V33.0417H27.9583V38.125ZM5.08333 55.9167H17.7917V49.5625C17.7917 48.8635 17.2223 48.2917 16.5208 48.2917H6.35417C5.65267 48.2917 5.08333 48.8635 5.08333 49.5625V55.9167ZM22.875 55.9167H38.125V44.4792C38.125 43.7802 37.5531 43.2083 36.8542 43.2083H24.1458C23.4443 43.2083 22.875 43.7802 22.875 44.4792V55.9167ZM55.9167 52.1042C55.9167 51.4052 55.3448 50.8333 54.6458 50.8333H44.4792C43.7802 50.8333 43.2083 51.4052 43.2083 52.1042V55.9167H55.9167V52.1042Z" fill="black"/>
</g>
<defs>
<clipPath id="clip0_19_106">
<rect width="61" height="61" fill="white"/>
</clipPath>
</defs>
</svg>
